REM MD5 9f0b6d4efdc1f935be275c56bc84f4ed
FILE "Shadow Madness (USA) (Disc 2).bin" BINARY
  TRACK 01 MODE2/2352
    INDEX 01 00:00:00
  TRACK 02 AUDIO
    INDEX 00 57:32:24
    INDEX 01 57:34:24
  TRACK 03 AUDIO
    INDEX 00 61:39:10
    INDEX 01 61:41:10
  TRACK 04 AUDIO
    INDEX 00 64:48:62
    INDEX 01 64:50:62
REM LEADOUT 70:03:62
